<svg xmlns="http://www.w3.org/2000/svg"><defs><style>.cls-1{fill:#210000}</style><style>.cls-1{fill:#fff}</style><style>.cls-1{fill:#272835}</style><filter id="filter0_ii_8_31" x="-3" y="-1" width="34.999" height="52" filterUnits="userSpaceOnUse" color-interpolation-filters="sRGB"><feFlood flood-opacity="0" result="BackgroundImageFix"/><feBlend in="SourceGraphic" in2="BackgroundImageFix" result="shape"/><feColorMatrix in="SourceAlpha" values="0 0 0 0 0 0 0 0 0 0 0 0 0 0 0 0 0 0 127 0" result="hardAlpha"/><feOffset dx="-3" dy="-1"/><feGaussianBlur stdDeviation="2"/><feComposite in2="hardAlpha" operator="arithmetic" k2="-1" k3="1"/><feColorMatrix values="0 0 0 0 0 0 0 0 0 0 0 0 0 0 0 0 0 0 0.12 0"/><feBlend in2="shape" result="effect1_innerShadow_8_31"/><feColorMatrix in="SourceAlpha" values="0 0 0 0 0 0 0 0 0 0 0 0 0 0 0 0 0 0 127 0" result="hardAlpha"/><feOffset dx="5" dy="1"/><feGaussianBlur stdDeviation="2"/><feComposite in2="hardAlpha" operator="arithmetic" k2="-1" k3="1"/><feColorMatrix values="0 0 0 0 1 0 0 0 0 1 0 0 0 0 1 0 0 0 0.21 0"/><feBlend in2="effect1_innerShadow_8_31" result="effect2_innerShadow_8_31"/></filter><filter id="filter0_i_8_38" x="0" y="0" width="31.999" height="51" filterUnits="userSpaceOnUse" color-interpolation-filters="sRGB"><feFlood flood-opacity="0" result="BackgroundImageFix"/><feBlend in="SourceGraphic" in2="BackgroundImageFix" result="shape"/><feColorMatrix in="SourceAlpha" values="0 0 0 0 0 0 0 0 0 0 0 0 0 0 0 0 0 0 127 0" result="hardAlpha"/><feOffset dx="5" dy="1"/><feGaussianBlur stdDeviation="2"/><feComposite in2="hardAlpha" operator="arithmetic" k2="-1" k3="1"/><feColorMatrix values="0 0 0 0 0 0 0 0 0 0 0 0 0 0 0 0 0 0 0.21 0"/><feBlend in2="shape" result="effect1_innerShadow_8_38"/></filter></defs><symbol id="aprove" viewBox="0 0 24 24"><g color="#fff" fill="none" stroke="#fff" stroke-linecap="square"><path d="M7 13l3 3 7-7"/><circle cx="12" cy="12" r="10"/></g></symbol><symbol id="arrowMoreActive" viewBox="0 0 28 50"><g filter="url(#filter0_ii_8_31)" fill="none"><path d="M3 3c7.445 7.22 22.267 21.73 21.996 22L3 47" stroke="#FF8208" stroke-width="6" stroke-linecap="round" stroke-linejoin="round"/></g></symbol><symbol id="arrowMoreDefault" viewBox="0 0 28 50"><g filter="url(#filter0_i_8_38)" fill="none"><path d="M3 3c7.445 7.22 22.267 21.73 21.996 22L3 47" stroke="#FF8208" stroke-width="6" stroke-linecap="round" stroke-linejoin="round"/></g></symbol><symbol id="arrowMoreSimple" viewBox="0 0 53 24"><path d="M52.054 13.06a1.5 1.5 0 000-2.12l-9.546-9.547a1.5 1.5 0 10-2.12 2.122L48.872 12l-8.486 8.485a1.5 1.5 0 102.121 2.122l9.546-9.546zm-51.06.44h50v-3h-50v3z" fill="#FF710B"/></symbol><symbol id="close copy" viewBox="0 0 24 24"><path d="M4.343 19.657L12 12m7.657-7.657L12 12m0 0L4.343 4.343M12 12l7.657 7.657" stroke="#28D" stroke-width="2" stroke-linecap="round" stroke-linejoin="round" fill="none"/></symbol><symbol id="close" viewBox="0 0 24 24"><path d="M4.343 19.657L12 12m7.657-7.657L12 12m0 0L4.343 4.343M12 12l7.657 7.657" stroke="#28D" stroke-width="2" stroke-linecap="round" stroke-linejoin="round" fill="none"/></symbol><symbol id="logo" viewBox="0 0 233.44 247.5"><g id="Layer_4" data-name="Layer 4"><g id="_logo5" data-name="logo5"><path class="cls-1" d="M38.11 190.71l42.67-46.99v46.99l21.3-.01 77.18-78.59h-72.32l33.41 8.61-38.27 37.64v-46.18l-21.12-.07-42.85 47v-20.23l42.67-46.13 21.3 12.52V45.74l-85.45 87.65v57.32h21.48zm68.83-.01H207v-17h-59.42l14.64-14.24H207v-16.08h-30.83l14.52-14.86c.14-.14 16.34 0 16.34 0v-16.41h-21z"/><path class="cls-1" d="M106.94 45.74v59.53H207zm14.8 25.54L157 92h-35.26z"/></g></g></symbol><symbol id="logoWhite" viewBox="0 0 233.44 247.5"><g fill="#fff"><g id="Layer_4" data-name="Layer 4"><g id="_logo5" data-name="logo5"><path class="cls-1" d="M41.58 188.41l42.66-46.99v46.99h21.31l77.17-78.6h-72.31l33.41 8.61-38.27 37.64v-46.18l-21.12-.07-42.85 47v-20.22l42.66-46.14 21.31 12.52V43.44L20.1 131.09v57.32h21.48zm68.83 0h100.08v-17h-59.44l14.64-14.23h44.8v-16h-30.85l14.52-14.87c.14-.14 16.33 0 16.33 0v-16.5h-21z"/><path class="cls-1" d="M110.41 43.44V103h100.08zM125.21 69l35.24 20.75h-35.24z"/></g></g></g></symbol><symbol id="profile" viewBox="0 0 64 64"><g id="_6-Profile" data-name="6-Profile"><path class="cls-1" d="M32 0a32 32 0 1032 32A32 32 0 0032 0zm0 62a29.88 29.88 0 01-20.37-8h40.74A29.88 29.88 0 0132 62zm-2.18-41h4.36A3.55 3.55 0 0037 22.91V24c0 2.77-1.31 6-5 6s-5-3.23-5-6v-1.09A3.55 3.55 0 0029.82 21zM27 20.86v-4.39A8.31 8.31 0 0132 15a8.31 8.31 0 015 1.47v4.39c-.5-.13-1-.38-1-.86a1 1 0 00-1-1h-6a1 1 0 00-1 1c0 .47-.5.72-1 .86zm7.84 11.89L32 35.59l-2.84-2.84.38-1.19a7 7 0 004.9 0zM31 37.41V41h2v-3.59l3.25-3.25 6 2.61.75 1.47V52h-3v-5h-2v5H26v-5h-2v5h-3V38.24l.73-1.46 6-2.61zM54.34 52H45V38a1 1 0 00-.11-.45l-1-2a1 1 0 00-.5-.47l-6.63-2.87-.54-1.67A8.2 8.2 0 0039 24v-8a1 1 0 00-.29-.71A9.73 9.73 0 0032 13a9.73 9.73 0 00-6.71 2.29A1 1 0 0025 16v8a8.2 8.2 0 002.77 6.54l-.54 1.67-6.63 2.87a1 1 0 00-.5.47l-1 2a1 1 0 00-.1.45v14H9.66a30 30 0 1144.67 0z"/><path class="cls-1" d="M57 31a25 25 0 00-50 0h2a23 23 0 0146 0zM7 33h2v2H7zm48 0h2v2h-2z"/></g></symbol><symbol id="rouble" viewBox="-1 0 24 24"><path d="M17.778 7.449a3.628 3.628 0 00-1.107-2.761l-.001-.001a4.03 4.03 0 00-2.923-1.057h.009-5.454v7.636h5.454a4.032 4.032 0 002.917-1.06l-.003.003a3.633 3.633 0 001.108-2.768v.007zm4.04 0a7.11 7.11 0 01-2.158 5.368l-.002.002a7.65 7.65 0 01-5.581 2.08h.015-5.795v2.011h8.629c.29 0 .525.235.525.525v.022-.001 2.203c0 .29-.235.525-.525.525h-.022.001-8.608v3.291a.537.537 0 01-.537.528H4.886a.525.525 0 01-.525-.525v-.022.001-3.273H.522a.525.525 0 01-.525-.525v-.022.001-2.203c0-.29.235-.525.525-.525h.022-.001 3.818v-2.011H.522a.525.525 0 01-.525-.525v-.022.001-2.546a.537.537 0 01.528-.537h.019-.001 3.818V.529c0-.29.235-.525.525-.525h.022-.001 9.187a7.653 7.653 0 015.57 2.084l-.004-.004a7.11 7.11 0 012.157 5.378v-.013z"/></symbol><symbol id="step1" viewBox="0 0 419 511.68"><path d="M314.98 303.63c57.47 0 104.02 46.58 104.02 104.02 0 57.47-46.58 104.03-104.02 104.03-57.47 0-104.03-46.58-104.03-104.03 0-57.47 46.59-104.02 104.03-104.02zM93 39.4h46.13C141.83 17.18 159.77 0 181.52 0c21.62 0 39.45 16.95 42.34 38.94l46.76.46c2.61 0 4.7 2.1 4.7 4.71v51.85c0 2.6-2.09 4.7-4.7 4.7H93.05c-2.56 0-4.71-2.1-4.71-4.7V44.11C88.3 41.5 90.4 39.4 93 39.4zM41.72 59.28h23.94v24.38H41.72c-4.76 0-9.11 1.95-12.24 5.09-3.14 3.13-5.1 7.48-5.1 12.24v315.53c0 4.76 1.96 9.1 5.1 12.24 3.12 3.16 7.47 5.12 12.24 5.12h142.62c1.68 8.44 4.18 16.6 7.37 24.38H41.72c-11.4 0-21.85-4.72-29.44-12.3C4.72 438.44 0 428 0 416.52V100.99c0-11.48 4.7-21.92 12.25-29.47 7.55-7.55 18-12.24 29.47-12.24zm297.56 217.36V100.99c0-4.52-1.76-8.67-4.61-11.75l-.51-.48c-3.15-3.14-7.48-5.1-12.24-5.1h-23.91V59.28h23.91c11.48 0 21.92 4.71 29.46 12.26l.72.78c7.15 7.51 11.56 17.64 11.56 28.67V283.6c-7.8-3.06-15.95-5.41-24.38-6.96zm-206.75-8.06c-7.13 0-12.92-5.79-12.92-12.93 0-7.13 5.79-12.92 12.92-12.92h142.82c7.14 0 12.93 5.79 12.93 12.92 0 7.14-5.79 12.93-12.93 12.93H132.53zM89.5 241.22c7.98 0 14.43 6.46 14.43 14.44 0 7.98-6.45 14.44-14.43 14.44-7.98 0-14.44-6.46-14.44-14.44 0-7.98 6.46-14.44 14.44-14.44zm0 78.62c7.98 0 14.43 6.47 14.43 14.44s-6.45 14.44-14.43 14.44c-7.98 0-14.44-6.47-14.44-14.44s6.46-14.44 14.44-14.44zm43.04 27.36c-7.13 0-12.93-5.79-12.93-12.93 0-7.13 5.8-12.92 12.93-12.92h80.96a133.654 133.654 0 00-17.27 25.85h-63.69zM89.5 162.61c7.98 0 14.43 6.46 14.43 14.44 0 7.98-6.45 14.44-14.43 14.44-7.98 0-14.44-6.46-14.44-14.44 0-7.98 6.46-14.44 14.44-14.44zm43.03 27.36c-7.13 0-12.92-5.8-12.92-12.93s5.79-12.93 12.92-12.93h142.82c7.14 0 12.93 5.8 12.93 12.93s-5.79 12.93-12.93 12.93H132.53zm48.5-169.81c12.3 0 22.26 9.97 22.26 22.27 0 12.29-9.96 22.26-22.26 22.26s-22.27-9.97-22.27-22.26c0-12.3 9.97-22.27 22.27-22.27zm103.62 367.48l19.48 18.45 38.62-39.2c3.6-3.67 5.85-6.59 10.31-2.03l14.42 14.76c4.73 4.67 4.48 7.4.02 11.78l-55.16 54.19c-9.39 9.23-7.77 9.81-17.3.32l-34.68-34.48c-1.96-2.15-1.75-4.33.39-6.5l16.73-17.32c2.54-2.64 4.56-2.47 7.17.03z" shape-rendering="geometricPrecision" text-rendering="geometricPrecision" image-rendering="optimizeQuality" fill-rule="evenodd" clip-rule="evenodd"/></symbol><symbol id="step2" viewBox="0 0 419 511.68"><path d="M93 39.4h46.12C141.84 17.18 159.77 0 181.52 0c21.62 0 39.45 16.95 42.34 38.94l46.76.46c2.6 0 4.7 2.1 4.7 4.71v51.85c0 2.6-2.1 4.69-4.7 4.69H93.05c-2.56 0-4.71-2.09-4.71-4.69V44.11A4.644 4.644 0 0193 39.4zm221.98 264.23c57.47 0 104.02 46.58 104.02 104.02 0 57.47-46.58 104.03-104.02 104.03-57.48 0-104.02-46.59-104.02-104.03 0-57.48 46.58-104.02 104.02-104.02zm-8.43 151.98l8.62-43.82 8.75 13.18c18.82-7.56 29.39-20.02 30.96-39.2 15.46 27.04 6.07 51.27-13.51 65.47l8.91 13.43-43.73-9.06zm16.85-95.93l-8.62 43.81-8.75-13.17c-18.83 7.56-29.39 20.02-30.96 39.2-15.46-27.03-6.06-51.26 13.52-65.47l-8.92-13.43 43.73 9.06zM41.73 59.28h23.93v24.38H41.73c-4.77 0-9.12 1.96-12.25 5.09-3.14 3.14-5.1 7.48-5.1 12.24v315.53c0 4.77 1.95 9.13 5.08 12.27 3.15 3.12 7.5 5.09 12.27 5.09h142.61c1.69 8.43 4.18 16.6 7.37 24.38H41.73c-11.41 0-21.86-4.71-29.42-12.27C4.72 438.38 0 427.96 0 416.52V100.99c0-11.48 4.7-21.91 12.25-29.46 7.55-7.55 17.99-12.25 29.48-12.25zm297.55 217.36V100.99c0-4.76-1.97-9.11-5.09-12.26-3.15-3.12-7.49-5.07-12.27-5.07h-23.91V59.28h23.91c11.44 0 21.85 4.71 29.42 12.25 7.6 7.61 12.31 18.05 12.31 29.46V283.6c-7.78-3.06-15.94-5.41-24.37-6.96zm-206.75-8.06c-7.13 0-12.92-5.8-12.92-12.93s5.79-12.92 12.92-12.92h142.82c7.13 0 12.93 5.79 12.93 12.92s-5.8 12.93-12.93 12.93H132.53zM89.5 241.21c7.97 0 14.44 6.47 14.44 14.44 0 7.98-6.47 14.45-14.44 14.45s-14.44-6.47-14.44-14.45c0-7.97 6.47-14.44 14.44-14.44zm0 78.63c7.97 0 14.44 6.46 14.44 14.43 0 7.98-6.47 14.45-14.44 14.45s-14.44-6.47-14.44-14.45c0-7.97 6.47-14.43 14.44-14.43zm43.04 27.36c-7.13 0-12.93-5.8-12.93-12.93s5.8-12.92 12.93-12.92h80.96a133.608 133.608 0 00-17.26 25.85h-63.7zM89.5 162.61c7.97 0 14.44 6.46 14.44 14.44 0 7.97-6.47 14.43-14.44 14.43s-14.44-6.46-14.44-14.43c0-7.98 6.47-14.44 14.44-14.44zm43.03 27.35c-7.13 0-12.92-5.79-12.92-12.92s5.79-12.93 12.92-12.93h142.82c7.13 0 12.93 5.8 12.93 12.93s-5.8 12.92-12.93 12.92H132.53zm48.5-169.8c12.3 0 22.26 9.97 22.26 22.27 0 12.29-9.96 22.25-22.26 22.25-12.29 0-22.26-9.96-22.26-22.25 0-12.3 9.97-22.27 22.26-22.27z" shape-rendering="geometricPrecision" text-rendering="geometricPrecision" image-rendering="optimizeQuality" fill-rule="evenodd" clip-rule="evenodd"/></symbol><symbol id="telegram" viewBox="0 0 50 50"><path d="M44.377 5.986c-.487.022-.961.157-1.389.328-.423.17-2.86 1.21-6.457 2.748a20314.52 20314.52 0 00-12.91 5.528c-9.272 3.972-18.383 7.88-18.383 7.88l.067-.025s-.55.184-1.108.573a3.078 3.078 0 00-.824.81 2.145 2.145 0 00-.357 1.432c.237 1.925 2.232 2.47 2.232 2.47l.008.004 8.902 3.047c.227.757 2.7 9.012 3.244 10.76.3.966.582 1.524.875 1.904.147.19.301.338.471.446.068.042.139.075.209.103h.004c.009.004.017.004.025.008l-.023-.006c.016.007.032.018.049.024.031.01.05.01.092.02 1.02.355 1.863-.306 1.863-.306l.035-.027 5.469-5.072 8.875 6.92.111.05c1.553.69 2.958.305 3.736-.328s1.084-1.449 1.084-1.449l.034-.086 6.521-33.99c.167-.76.19-1.418.033-2.012-.157-.594-.54-1.11-1.02-1.396a2.588 2.588 0 00-1.468-.358zm.053 2.034c.197-.01.344.013.39.04.047.028.067.024.112.192.044.167.068.52-.053 1.072l-.004.012-6.484 33.793c-.016.034-.15.347-.46.598-.314.256-.664.456-1.593.066l-9.705-7.568-.274-.215-.005.006-2.903-2.178 16.31-19.19A1 1 0 0038.976 13a1 1 0 00-.53.168L14.844 28.902 5.928 25.85s-.886-.493-.928-.836c-.002-.02-.013-.002.033-.07.046-.07.162-.185.307-.286.29-.202.62-.324.62-.324l.034-.012.033-.013s9.112-3.91 18.383-7.881c4.636-1.986 9.312-3.988 12.908-5.526 3.596-1.537 6.194-2.644 6.414-2.732.25-.1.5-.141.698-.15zM33.613 18.793L21.244 33.346l-.006.006a1 1 0 00-.054.072 1 1 0 00-.055.084 1 1 0 00-.131.385 1 1 0 000 .007l-1.611 7.246c-.027-.078-.046-.106-.075-.199v-.002a2314.72 2314.72 0 01-3.167-10.506l17.468-11.646zM22.641 35.73l2.222 1.668-3.265 3.028 1.043-4.696z" fill="#fff"/></symbol><symbol id="vk" viewBox="0 0 48 48"><path d="M45.763 35.202c-1.797-3.234-6.426-7.12-8.337-8.811a1.242 1.242 0 01-.103-1.776c3.647-3.919 6.564-8.422 7.568-11.143.443-1.202-.474-2.472-1.766-2.472h-3.753c-1.237 0-1.961.444-2.306 1.151-3.031 6.211-5.631 8.899-7.451 10.47-1.019.88-2.608.151-2.608-1.188v-8.28a2.084 2.084 0 00-2.095-2.075L18.056 11c-.863 0-1.356.977-.838 1.662l1.132 1.625c.426.563.656 1.248.656 1.951L19 23.556c0 1.273-1.543 1.895-2.459 1.003-3.099-3.018-5.788-9.181-6.756-12.128A2.087 2.087 0 007.8 11l-3.697-.009c-1.387 0-2.401 1.315-2.024 2.639C5.457 25.487 12.388 36.767 24.74 37.99c1.217.12 2.267-.86 2.267-2.073v-3.846c0-1.103.865-2.051 1.977-2.079l.117-.001c3.267 0 6.926 4.755 8.206 6.979a2.07 2.07 0 001.8 1.03h4.973c1.451 0 2.382-1.539 1.683-2.798z" fill="#fff"/></symbol></svg>